<svg width="10" height="10" viewBox="0 0 10 10" fill="none" xmlns="http://www.w3.org/2000/svg">
<path d="M7.41832 4.98967C7.41832 5.21681 7.32565 5.43485 7.16116 5.59556L3.65199 9.02467C3.48859 9.18967 3.26379 9.28395 3.02856 9.2861C2.79334 9.28824 2.56689 9.1977 2.4002 9.03538C2.23406 8.87252 2.1414 8.65127 2.14359 8.42145C2.14579 8.19163 2.24229 7.97199 2.41117 7.81235L5.3002 4.98967L2.41117 2.16752C2.07889 1.8311 2.08328 1.29645 2.42158 0.965918C2.75989 0.635382 3.3071 0.630561 3.65144 0.955203L7.16061 4.38377C7.3251 4.54449 7.41777 4.76252 7.41777 4.98967L7.41832 4.98967Z" fill="white"/>
</svg>
