<!DOCTYPE svg PUBLIC "-//W3C//DTD SVG 1.1//EN" "http://www.w3.org/Graphics/SVG/1.1/DTD/svg11.dtd">
<!-- Uploaded to: SVG Repo, www.svgrepo.com, Transformed by: SVG Repo Mixer Tools -->
<svg width="800px" height="800px" viewBox="0 0 48 48" xmlns="http://www.w3.org/2000/svg" fill="#ff8200">
<g id="SVGRepo_bgCarrier" stroke-width="0"/>
<g id="SVGRepo_tracerCarrier" stroke-linecap="round" stroke-linejoin="round"/>
<g id="SVGRepo_iconCarrier"> <title>arrow-skip-back</title> <g id="Layer_2" data-name="Layer 2"> <g id="invisible_box" data-name="invisible box"> <rect width="48" height="48" fill="none"/> </g> <g id="icons_Q2" data-name="icons Q2"> <path d="M15.8,24,26.4,34.6a1.9,1.9,0,0,1-.2,3,2.1,2.1,0,0,1-2.7-.2l-11.9-12a1.9,1.9,0,0,1,0-2.8l11.9-12a2.1,2.1,0,0,1,2.7-.2,1.9,1.9,0,0,1,.2,3Z"/> <path d="M27.8,24,38.4,34.6a1.9,1.9,0,0,1-.2,3,2.1,2.1,0,0,1-2.7-.2l-11.9-12a1.9,1.9,0,0,1,0-2.8l11.9-12a2.1,2.1,0,0,1,2.7-.2,1.9,1.9,0,0,1,.2,3Z"/> </g> </g> </g>
</svg>