<svg width="10" height="10" viewBox="0 0 10 10" fill="none" xmlns="http://www.w3.org/2000/svg">
<path d="M7.41734 4.99064C7.41734 5.21779 7.32468 5.43582 7.16018 5.59654L3.65101 9.02564C3.48762 9.19064 3.26281 9.28493 3.02759 9.28707C2.79236 9.28922 2.56591 9.19868 2.39922 9.03636C2.23309 8.8735 2.14042 8.65225 2.14262 8.42243C2.14481 8.19261 2.24131 7.97296 2.41019 7.81332L5.29923 4.99064L2.41019 2.1685C2.07792 1.83207 2.0823 1.29743 2.42061 0.966894C2.75891 0.636358 3.30613 0.631537 3.65046 0.95618L7.15964 4.38475C7.32413 4.54546 7.41679 4.7635 7.41679 4.99064L7.41734 4.99064Z" fill="#736000"/>
</svg>
